<svg xmlns="http://www.w3.org/2000/svg" xmlns:xlink="http://www.w3.org/1999/xlink" width="290" height="57.731" viewBox="0 0 290 57.731"><defs><style>.a{fill:#fff;stroke:#707070;}.b{clip-path:url(#a);}.c{fill:#153549;}.d{fill:url(#b);}.e{fill:url(#c);}.f{fill:url(#d);}.g{fill:url(#e);}.h{fill:none;stroke:#153549;stroke-linecap:round;stroke-miterlimit:10;stroke-width:0.862px;}</style><clipPath id="a"><rect class="a" width="290" height="57.731" transform="translate(416 280)"/></clipPath><linearGradient id="b" y1="0.5" x2="1" y2="0.5" gradientUnits="objectBoundingBox"><stop offset="0" stop-color="#ee980c"/><stop offset="1" stop-color="#f5bd50"/></linearGradient><linearGradient id="c" x1="0" y1="0.5" x2="1" y2="0.5" xlink:href="#b"/><linearGradient id="d" x1="0" y1="0.5" x2="1" y2="0.5" xlink:href="#b"/><linearGradient id="e" x1="0" y1="0.5" x2="1" y2="0.5" xlink:href="#b"/></defs><g class="b" transform="translate(-416 -280)"><g transform="translate(439.729 280)"><path class="c" d="M277.937,127.967c0-.074.138-.111.138-.111l.228-.064.159-.058c.127-.106,0-.381,0-.381s-.524-1.085-.6-1.307.058-.2.058-.2h.609c.18-.037.259.175.259.175s.434.63.783,1.085a.942.942,0,0,0,.963.275l1.931-.2s1.762-.222,2.281-.228.344-.333.344-.333l-.646-2.73s-.513-2.058-.587-2.487.2-.4.2-.4.243-.011.566,0a.4.4,0,0,1,.386.3l1.307,2.667s1.185,2.466,1.281,2.709.445.222.445.222l.672.09,1.455.185a7.587,7.587,0,0,1,1.931.355c.64.275.566.429.566.429h0s.074.148-.566.429a7.4,7.4,0,0,1-1.931.36l-1.46.185-.672.085s-.349-.016-.445.228-1.281,2.709-1.281,2.709l-1.307,2.667a.4.4,0,0,1-.386.3c-.323.011-.561,0-.561,0s-.275.032-.2-.4.587-2.487.587-2.487l.646-2.73s.175-.328-.344-.333-2.281-.233-2.281-.233l-1.931-.2a.944.944,0,0,0-.963.275c-.349.455-.783,1.085-.783,1.085s-.079.206-.259.175h-.609s-.132.026-.058-.2.6-1.307.6-1.307.127-.275,0-.381l-.164-.058-.227-.063s-.138-.037-.138-.111l.005.011Z" transform="translate(-73.964 -76.925)"/><g transform="translate(0.106 0)"><path class="c" d="M103.231,100.4H90.325v13.377H81.1V78.455h23.5V86.6H90.325v5.651h12.906Z" transform="translate(-81.096 -78.444)"/><path class="c" d="M122.933,113.37l-.847-1.508a15.016,15.016,0,0,1-7.863,2.259c-6.874,0-8.429-3.625-8.429-8.244V89.818h9.228v15.213c0,1.175.519,1.884,1.789,1.884a5.922,5.922,0,0,0,3.016-.847V89.818h9.228v23.547h-6.122Z" transform="translate(-80.214 -78.039)"/><path class="c" d="M138.725,104.258c-.1,2.26,1.222,3.2,5.18,3.2a26.962,26.962,0,0,0,8.287-1.413l.143,6.45a28.1,28.1,0,0,1-9.7,1.651c-8.715,0-12.149-4.006-12.149-12.53s3.768-12.525,11.869-12.525c8.668,0,10.737,5.133,10.737,11.112a39.618,39.618,0,0,1-.191,4.048H138.725Zm0-4.709h6.45c.328-2.73-.7-4.239-2.826-4.239C140.275,95.31,138.677,96.722,138.725,99.548Z" transform="translate(-79.332 -78.064)"/><path class="c" d="M165.829,113.866a17.544,17.544,0,0,1-3.439.376c-4.429,0-7.63-1.979-7.63-6.736V78.445h9.228v26.892c0,.942.519,1.413,1.836,1.413v7.117Z" transform="translate(-78.466 -78.445)"/><g transform="translate(83.77 6.032)"><path class="d" d="M169.773,114.1h-7.794V84.269H172.6c8.313,0,11.176,4.81,11.176,9.943,0,5.212-2.863,9.943-11.176,9.943h-2.826Zm0-16.7h2.863a2.848,2.848,0,0,0,2.863-3.143,2.887,2.887,0,0,0-2.863-3.143h-2.863Z" transform="translate(-161.978 -84.269)"/><path class="e" d="M194.488,114.177a14.774,14.774,0,0,1-2.905.317c-3.736,0-6.44-1.672-6.44-5.688V84.269h7.794v22.706c0,.794.439,1.191,1.55,1.191Z" transform="translate(-161.151 -84.269)"/><path class="f" d="M210.574,113.755l-.714-1.275a12.664,12.664,0,0,1-6.641,1.91c-5.8,0-7.117-3.064-7.117-6.958V93.869H203.9v12.848c0,.995.439,1.593,1.513,1.593a5,5,0,0,0,2.545-.714V93.874h7.794V113.76h-5.175Z" transform="translate(-160.759 -83.926)"/><path class="g" d="M233.533,100.257a18.582,18.582,0,0,0-6.683-1.27c-1.392,0-2.228.318-2.228,1.191,0,.915.635,1.154,1.55,1.233,6.519.519,8.191,1.672,8.191,6.043,0,3.937-2.185,6.958-9.308,6.958a18.628,18.628,0,0,1-7.593-1.355l.122-5.884a19.788,19.788,0,0,0,7.4,1.55c1.434,0,2.265-.318,2.265-1.191,0-.915-.635-1.154-1.593-1.233-6.366-.556-8.191-1.751-8.191-6.043,0-4.175,2.588-7,9.07-7a17.907,17.907,0,0,1,7.117,1.111Z" transform="translate(-159.996 -83.948)"/></g><g transform="translate(165.419 10.546)"><path class="c" d="M250.791,88.627a16.23,16.23,0,0,1,6.6,1.185v2.265a15.753,15.753,0,0,0-6.6-1.318c-5.551,0-7.546,4.768-7.546,10.9s1.995,10.9,7.546,10.9a15.769,15.769,0,0,0,6.6-1.318V113.5a16.23,16.23,0,0,1-6.6,1.185c-7.578,0-9.98-5.821-9.98-13.022S243.213,88.627,250.791,88.627Z" transform="translate(-240.811 -88.627)"/><path class="c" d="M261.416,110.946V88.954h2.3v22.262c0,1.185.37,1.524,1.418,1.524v1.926C262.7,114.666,261.416,113.65,261.416,110.946Z" transform="translate(-240.075 -88.615)"/><path class="c" d="M275.512,114.386c-5.784,0-7.1-3.619-7.1-8.795s1.318-8.795,7.1-8.795c5.821,0,7.107,3.619,7.107,8.795S281.332,114.386,275.512,114.386Zm0-15.494c-4.466,0-4.736,2.873-4.736,6.7s.27,6.7,4.736,6.7c4.4,0,4.736-2.873,4.736-6.7S279.909,98.892,275.512,98.892Z" transform="translate(-239.825 -88.335)"/><path class="c" d="M288.249,109.4c0,2.2,1.286,2.873,3.381,2.873a8.082,8.082,0,0,0,4.567-1.085V97.113h2.371V114.03H297.25l-.508-1.423a8.432,8.432,0,0,1-5.112,1.762c-4.027,0-5.752-1.826-5.752-5.075V97.124h2.371Z" transform="translate(-239.202 -88.324)"/><path class="c" d="M313.716,98.463V88.954h2.371v25.373h-1.318l-.508-1.386a9.675,9.675,0,0,1-5.276,1.725c-5.445,0-6.937-3.926-6.937-8.795s1.487-8.795,6.937-8.795A8.813,8.813,0,0,1,313.716,98.463Zm-9.3,7.408c0,3.35.508,6.7,4.567,6.7a8.873,8.873,0,0,0,4.736-1.085V100.252a8.922,8.922,0,0,0-4.736-1.085C304.922,99.172,304.414,102.522,304.414,105.871Z" transform="translate(-238.624 -88.615)"/></g></g><line class="h" x2="193.205" transform="translate(0 51.122)"/></g></g></svg>